<svg version="1.1" xmlns="http://www.w3.org/2000/svg" viewBox="0 0 1416.4878078415281 980.900459516616" width="1416.4878078415281" height="980.900459516616">
  <!-- svg-source:excalidraw -->
  
  <defs>
    <style class="style-fonts">
      @font-face {
        font-family: "Virgil";
        src: url("https://excalidraw.com/Virgil.woff2");
      }
      @font-face {
        font-family: "Cascadia";
        src: url("https://excalidraw.com/Cascadia.woff2");
      }
    </style>
  </defs>
  <g stroke-linecap="round" transform="translate(10 306.88095238095224) rotate(0 172.5 187)"><path d="M29.14 156.51 C29.14 156.51, 29.14 156.51, 29.14 156.51 M29.14 156.51 C29.14 156.51, 29.14 156.51, 29.14 156.51 M11.56 188.93 C56.28 137.61, 101.13 84.84, 161.14 16.85 M11.56 188.93 C43.17 153.91, 75.12 118.68, 161.14 16.85 M14.32 197.95 C51.26 158.36, 85.84 115.2, 175.05 13.05 M14.32 197.95 C76.66 128.13, 137.13 59.23, 175.05 13.05 M19.04 204.71 C77.12 139.77, 133.98 75.46, 183.06 16.03 M19.04 204.71 C60.36 156.32, 101.24 109.06, 183.06 16.03 M23.77 211.47 C73.31 154.11, 122.8 97.67, 189.75 20.52 M23.77 211.47 C71.68 157.34, 118.4 103.92, 189.75 20.52 M28.5 218.22 C79.61 161.98, 128.64 101.04, 195.79 25.77 M28.5 218.22 C92.78 144.21, 156.1 71.51, 195.79 25.77 M33.88 224.23 C94.67 152.14, 154.62 81.44, 201.17 31.78 M33.88 224.23 C97.96 153.72, 160.81 80.91, 201.17 31.78 M39.92 229.47 C91.82 173.49, 140.86 116.67, 207.21 37.02 M39.92 229.47 C96.34 166.41, 150.26 103.44, 207.21 37.02 M45.3 235.48 C93.3 180.7, 142.45 125.43, 212.59 43.03 M45.3 235.48 C79.97 192.33, 117.41 150.57, 212.59 43.03 M50.68 241.48 C109.34 171.79, 169.71 102.6, 217.97 49.03 M50.68 241.48 C91.01 195.76, 130.95 151.3, 217.97 49.03 M56.06 247.48 C111.69 182.42, 165.89 118.77, 223.36 55.03 M56.06 247.48 C104.38 191.33, 154.25 134.47, 223.36 55.03 M61.44 253.49 C107.99 202.65, 152.79 152.33, 228.74 61.04 M61.44 253.49 C108.99 199.28, 154.79 145.17, 228.74 61.04 M67.48 258.74 C104.21 216.18, 141.37 172.5, 234.77 66.28 M67.48 258.74 C133.85 182.16, 200.35 105.63, 234.77 66.28 M72.86 264.74 C125.04 206.52, 175.84 144.28, 240.16 72.29 M72.86 264.74 C111.1 218.58, 151.07 172.97, 240.16 72.29 M78.24 270.74 C123.18 218.51, 170.58 165.73, 245.54 78.29 M78.24 270.74 C122.04 218.23, 166.7 168.43, 245.54 78.29 M83.62 276.75 C137.46 217.01, 190.23 155.39, 250.92 84.29 M83.62 276.75 C137.56 213.21, 191.77 150.49, 250.92 84.29 M89.01 282.75 C131.73 232.97, 178.41 180.13, 256.3 90.3 M89.01 282.75 C144.45 217.31, 201.25 151.91, 256.3 90.3 M94.39 288.75 C134.6 243.56, 173.05 199.25, 261.68 96.3 M94.39 288.75 C159.2 216.1, 223.51 142.13, 261.68 96.3 M100.43 294 C165.99 221.92, 229.3 145.36, 267.06 102.3 M100.43 294 C164.95 218.95, 230.66 143.32, 267.06 102.3 M105.81 300 C165.07 233.89, 223.4 163.23, 272.45 108.31 M105.81 300 C147.09 251.44, 190.96 201.9, 272.45 108.31 M111.19 306.01 C154.24 257.78, 196.31 208.63, 277.83 114.31 M111.19 306.01 C162.56 245.59, 213.89 185.95, 277.83 114.31 M116.57 312.01 C165.49 258.42, 211.89 203.61, 283.21 120.31 M116.57 312.01 C155.21 267.32, 191.98 223.54, 283.21 120.31 M121.95 318.01 C175.15 256.7, 229.07 194.62, 288.59 126.32 M121.95 318.01 C174.86 257.74, 227.07 197.9, 288.59 126.32 M127.33 324.02 C184.42 257.61, 243.61 189.81, 293.97 132.32 M127.33 324.02 C194.69 247.42, 260.08 170.59, 293.97 132.32 M133.37 329.26 C177.57 279.34, 220.34 228.59, 299.35 138.32 M133.37 329.26 C187.38 265.05, 242.24 202.14, 299.35 138.32 M138.75 335.27 C178.93 288.9, 218.56 245.15, 304.74 144.33 M138.75 335.27 C188.12 280.42, 234.95 224.8, 304.74 144.33 M144.13 341.27 C208.38 267.52, 270.94 197.67, 310.12 150.33 M144.13 341.27 C182.89 296.44, 220.46 252.61, 310.12 150.33 M149.52 347.27 C202.17 287.17, 252.97 225.45, 315.5 156.33 M149.52 347.27 C190.25 302.94, 228.52 258.41, 315.5 156.33 M155.55 352.52 C189.78 311.43, 223.17 274.31, 320.88 162.34 M155.55 352.52 C217.51 282.55, 279.45 210.34, 320.88 162.34 M160.93 358.53 C214.88 295.1, 269.71 234.85, 326.92 167.58 M160.93 358.53 C194.54 317.65, 230.14 278.91, 326.92 167.58 M168.28 362.26 C218.78 303.36, 269.63 248.19, 331.64 174.34 M168.28 362.26 C212.94 311.26, 258.07 258.36, 331.64 174.34 M176.29 365.25 C224.65 307.79, 276.63 251.5, 335.71 181.85 M176.29 365.25 C237.18 293.48, 299.12 222.75, 335.71 181.85 M204.63 344.84 C238 306.28, 275.65 264.92, 335.85 193.9 M204.63 344.84 C252.05 290.73, 297.74 238.8, 335.85 193.9" stroke="#ffec99" stroke-width="1" fill="none"></path><path d="M216.25 47 M216.25 47 C238.77 67.94, 258.35 91.72, 301.75 141 M216.25 47 C251.04 83.88, 284.23 119.98, 301.75 141 M301.75 141 C345.16 187.65, 345.69 187.43, 301.75 235 M301.75 141 C343.27 187.42, 342.88 189.05, 301.75 235 M301.75 235 C268.69 269.12, 239.22 300.16, 216.25 327 M301.75 235 C282.12 256.26, 261.68 277.78, 216.25 327 M216.25 327 C172.52 374.79, 173.57 375.45, 129.75 327 M216.25 327 C174.89 374.31, 172.36 376.18, 129.75 327 M129.75 327 C109.3 305.3, 85.49 278.96, 43.25 235 M129.75 327 C98.89 292.31, 68.92 259.89, 43.25 235 M43.25 235 C-1.96 189.43, -0.62 186.98, 43.25 141 M43.25 235 C0.4 186.03, 1.93 189.89, 43.25 141 M43.25 141 C70.49 110.33, 99.55 81.26, 129.75 47 M43.25 141 C74.15 108.46, 104.52 76.28, 129.75 47 M129.75 47 C173.81 1.13, 173.99 -0.99, 216.25 47 M129.75 47 C172.91 -0.82, 170.95 0.06, 216.25 47" stroke="#f08c00" stroke-width="2" fill="none"></path></g><g transform="translate(108.88973236083984 435.7866900858703) rotate(0 73.86026763916016 58.09426229508193)"><text x="73.86026763916016" y="0" font-family="Virgil, Segoe UI Emoji" font-size="30.983606557377033px" fill="#f08c00" text-anchor="middle" style="white-space: pre;" direction="ltr" dominant-baseline="text-before-edge">Load </text><text x="73.86026763916016" y="38.72950819672129" font-family="Virgil, Segoe UI Emoji" font-size="30.983606557377033px" fill="#f08c00" text-anchor="middle" style="white-space: pre;" direction="ltr" dominant-baseline="text-before-edge">Balancer </text><text x="73.86026763916016" y="77.45901639344258" font-family="Virgil, Segoe UI Emoji" font-size="30.983606557377033px" fill="#f08c00" text-anchor="middle" style="white-space: pre;" direction="ltr" dominant-baseline="text-before-edge">A</text></g><g stroke-linecap="round" transform="translate(787.487807841528 10) rotate(0 309.5 140)"><path d="M7.86 8.16 C7.86 8.16, 7.86 8.16, 7.86 8.16 M7.86 8.16 C7.86 8.16, 7.86 8.16, 7.86 8.16 M6.68 21.71 C11.52 16.79, 16.08 10.41, 21.12 5.11 M6.68 21.71 C11.04 16.56, 15.21 11.33, 21.12 5.11 M4.85 36.01 C11 28.33, 21.13 17.75, 34.37 2.05 M4.85 36.01 C14.62 24.52, 24.69 12.87, 34.37 2.05 M4.98 48.06 C15.77 36.81, 23.69 27.61, 45 2.02 M4.98 48.06 C20.16 30.45, 36 12.25, 45 2.02 M5.11 60.1 C25.74 39.46, 43.65 14.25, 55.63 1.98 M5.11 60.1 C24.66 37.19, 45.04 13.69, 55.63 1.98 M4.59 72.89 C27.33 49.6, 47.93 21.5, 66.26 1.95 M4.59 72.89 C19.47 54.85, 36.62 36.26, 66.26 1.95 M4.72 84.93 C24.25 64.58, 41.94 43.3, 76.89 1.91 M4.72 84.93 C26.85 59.05, 48.55 33.37, 76.89 1.91 M4.86 96.97 C29.89 70.38, 52.36 42.76, 87.52 1.88 M4.86 96.97 C24.53 74.53, 41.68 52.98, 87.52 1.88 M4.99 109.01 C33.86 74.31, 64.22 39.32, 98.15 1.85 M4.99 109.01 C34.86 75.19, 63.9 42.07, 98.15 1.85 M5.12 121.06 C39.93 80.67, 76.94 38.44, 108.78 1.81 M5.12 121.06 C47.46 73.44, 87.48 25.43, 108.78 1.81 M5.26 133.1 C35.67 98.87, 64.85 63.41, 119.41 1.78 M5.26 133.1 C42.2 88.7, 79.6 45.92, 119.41 1.78 M4.73 145.89 C35.51 110.11, 65.84 77.48, 130.04 1.74 M4.73 145.89 C42.55 104.58, 77.62 62.1, 130.04 1.74 M4.87 157.93 C57.69 97.21, 108.86 40.67, 140.67 1.71 M4.87 157.93 C36.67 121.06, 67.35 85.09, 140.67 1.71 M5 169.97 C51.4 117.38, 95.61 63.02, 150.65 2.43 M5 169.97 C40.95 131.13, 74.44 92.07, 150.65 2.43 M5.13 182.01 C37.44 143.07, 68.92 108.18, 161.28 2.39 M5.13 182.01 C63.62 115.98, 122.13 47.7, 161.28 2.39 M5.27 194.05 C59.43 130.39, 114.47 69.89, 171.91 2.36 M5.27 194.05 C39.01 153.03, 74.74 114.12, 171.91 2.36 M5.4 206.1 C60.17 142.39, 115.2 82.27, 182.54 2.32 M5.4 206.1 C53.85 150.71, 102.72 93.55, 182.54 2.32 M4.88 218.89 C62.36 151.05, 123.17 84.3, 193.17 2.29 M4.88 218.89 C76.96 134.22, 150.25 50.39, 193.17 2.29 M5.01 230.93 C56.38 171.46, 111.64 109.46, 203.8 2.26 M5.01 230.93 C76.22 149.54, 145.53 70.33, 203.8 2.26 M5.14 242.97 C60.59 179.63, 111.9 119.12, 214.43 2.22 M5.14 242.97 C86.76 146.21, 169.37 49.67, 214.43 2.22 M2.65 258.03 C71.07 177.72, 139.61 98.7, 225.06 2.19 M2.65 258.03 C78.76 169.78, 155.64 81.76, 225.06 2.19 M4.75 267.81 C63.73 200.38, 121.41 133.29, 235.69 2.15 M4.75 267.81 C64.03 200.18, 123.06 132.29, 235.69 2.15 M10.79 273.06 C72.91 200.96, 138.48 127.23, 246.32 2.12 M10.79 273.06 C88.49 182.5, 166.04 93.4, 246.32 2.12 M16.17 279.06 C100.92 184.57, 182.48 89.6, 256.95 2.08 M16.17 279.06 C66.38 217.96, 117.87 158.98, 256.95 2.08 M23.52 282.8 C79.9 217.49, 135.18 152.45, 267.58 2.05 M23.52 282.8 C94.17 201.2, 164.36 119.87, 267.58 2.05 M34.81 282.01 C107.55 200.58, 180.05 118.17, 278.21 2.01 M34.81 282.01 C118.64 183.43, 204.69 85.21, 278.21 2.01 M45.44 281.98 C117.2 200.49, 187.62 118.97, 288.84 1.98 M45.44 281.98 C127.38 190.36, 208.54 97.71, 288.84 1.98 M56.07 281.94 C151.83 172.7, 247.63 60.23, 299.47 1.94 M56.07 281.94 C146.34 180.31, 234.36 78.93, 299.47 1.94 M66.7 281.91 C160.3 175.25, 254.01 66.87, 310.1 1.91 M66.7 281.91 C137.74 199.16, 209.21 116.94, 310.1 1.91 M76.67 282.63 C141.49 209.81, 204.04 137.48, 320.73 1.88 M76.67 282.63 C166.69 179.76, 255.74 77.51, 320.73 1.88 M87.3 282.59 C152.21 208.81, 214.45 137.74, 331.36 1.84 M87.3 282.59 C164.69 190.65, 243.89 100.41, 331.36 1.84 M97.93 282.56 C157.39 216.87, 215.79 149.54, 341.99 1.81 M97.93 282.56 C171.27 197.86, 244.3 114.05, 341.99 1.81 M108.56 282.52 C185.03 196.48, 259.31 109.92, 352.62 1.77 M108.56 282.52 C182.31 197.45, 255.96 112.21, 352.62 1.77 M119.19 282.49 C169.19 225.85, 220.17 168.06, 363.25 1.74 M119.19 282.49 C198.85 191.19, 278.18 99.59, 363.25 1.74 M129.82 282.46 C215.69 187.58, 298.9 91.37, 373.88 1.7 M129.82 282.46 C186.2 219.29, 241.24 155.48, 373.88 1.7 M140.45 282.42 C230.35 178.13, 319.08 76.41, 383.85 2.42 M140.45 282.42 C197.58 217.44, 254.09 153.59, 383.85 2.42 M151.08 282.39 C202.48 226.03, 252.58 168.59, 394.48 2.39 M151.08 282.39 C203.56 221.25, 255.93 161.72, 394.48 2.39 M161.71 282.35 C221.46 211.84, 282.07 141.18, 405.11 2.35 M161.71 282.35 C214.78 222.65, 268.25 162.98, 405.11 2.35 M172.34 282.32 C261.86 181, 350.24 77.88, 415.74 2.32 M172.34 282.32 C248.85 198.05, 324.18 111.84, 415.74 2.32 M182.97 282.28 C257.13 194.03, 334.53 104.62, 426.37 2.29 M182.97 282.28 C258.62 195.82, 333.09 108.89, 426.37 2.29 M193.6 282.25 C272.69 190.58, 353.08 98.61, 437 2.25 M193.6 282.25 C260.61 206.3, 326.75 131.22, 437 2.25 M204.23 282.21 C289.2 183.33, 374.45 84.81, 447.63 2.22 M204.23 282.21 C291.86 181.63, 380.49 80.88, 447.63 2.22 M214.86 282.18 C264.59 220.6, 317.57 160.51, 458.26 2.18 M214.86 282.18 C308.3 174.85, 401.88 66.88, 458.26 2.18 M225.49 282.14 C291.49 204.16, 356.69 128.55, 468.89 2.15 M225.49 282.14 C285.44 213.41, 345.4 144.23, 468.89 2.15 M236.12 282.11 C329.77 174.43, 421.97 68.22, 479.52 2.11 M236.12 282.11 C298.86 210.71, 362.05 136.98, 479.52 2.11 M246.75 282.08 C324.21 192.7, 401.14 101.27, 490.15 2.08 M246.75 282.08 C307.29 212.98, 367.93 143.83, 490.15 2.08 M257.38 282.04 C308.27 223.52, 357.03 167.84, 500.78 2.04 M257.38 282.04 C311.79 219.19, 366.17 156.43, 500.78 2.04 M268.01 282.01 C334.35 205.58, 400.8 129.59, 511.41 2.01 M268.01 282.01 C338.16 199.8, 408.4 118.87, 511.41 2.01 M278.64 281.97 C351.96 196.37, 425.54 109.99, 522.04 1.98 M278.64 281.97 C358.93 189.36, 439.68 97.5, 522.04 1.98 M289.27 281.94 C344.45 219.61, 398 157.36, 532.67 1.94 M289.27 281.94 C364.51 194.51, 438.78 109.11, 532.67 1.94 M299.9 281.9 C378.29 193.6, 453.11 105.55, 543.3 1.91 M299.9 281.9 C383.76 184.87, 468.85 87.99, 543.3 1.91 M309.88 282.62 C358.21 225.02, 409.9 165.54, 553.93 1.87 M309.88 282.62 C371.97 212.28, 433.83 140.66, 553.93 1.87 M320.51 282.59 C394.32 195.79, 468.02 109.25, 564.56 1.84 M320.51 282.59 C410.23 177.17, 502.08 72.45, 564.56 1.84 M331.14 282.55 C423.63 176.49, 515.32 72.56, 575.19 1.8 M331.14 282.55 C408.95 195.47, 485.27 107.13, 575.19 1.8 M341.77 282.52 C433.23 179.46, 525.22 75.05, 587.14 0.26 M341.77 282.52 C398.5 219.11, 452.69 155.98, 587.14 0.26 M352.4 282.49 C406.6 222.18, 460.95 162.55, 596.45 1.73 M352.4 282.49 C423.54 200.96, 494.66 120.19, 596.45 1.73 M363.03 282.45 C420.83 216.49, 478.49 152.78, 604.46 4.72 M363.03 282.45 C420.58 217.98, 476.4 153.45, 604.46 4.72 M373.66 282.42 C453.87 189.54, 533.97 98.23, 611.81 8.46 M373.66 282.42 C422.08 227.25, 470.25 170.67, 611.81 8.46 M384.29 282.38 C443.48 217.24, 498.88 150.27, 617.19 14.46 M384.29 282.38 C445.31 210.85, 507.04 138.23, 617.19 14.46 M394.92 282.35 C458.98 209.26, 525.91 134.26, 621.26 21.97 M394.92 282.35 C465.89 202.32, 534.4 122.74, 621.26 21.97 M405.55 282.31 C488.7 184.9, 573.86 87.84, 621.39 34.01 M405.55 282.31 C472.27 207.93, 538.03 132.58, 621.39 34.01 M416.18 282.28 C483.55 207, 547.87 129.76, 621.53 46.05 M416.18 282.28 C469.38 221.5, 522.84 161.03, 621.53 46.05 M426.81 282.24 C480.86 222.82, 531.97 161.85, 621.66 58.1 M426.81 282.24 C474.22 227.38, 523.22 170.98, 621.66 58.1 M437.44 282.21 C481.89 229.21, 529.28 176.54, 621.14 70.89 M437.44 282.21 C502.65 206.67, 567.53 131.43, 621.14 70.89 M448.07 282.18 C503.63 217.81, 560.99 152.62, 621.27 82.93 M448.07 282.18 C505.47 217.37, 562.72 151.33, 621.27 82.93 M458.7 282.14 C521.28 209.13, 586.84 135.43, 621.4 94.97 M458.7 282.14 C507.47 223.62, 557.12 166.84, 621.4 94.97 M469.33 282.11 C500.63 245.85, 535.09 206.31, 621.54 107.01 M469.33 282.11 C513.68 230.24, 556.74 180.27, 621.54 107.01 M479.96 282.07 C510.44 249.09, 536.12 215.01, 621.67 119.05 M479.96 282.07 C515.41 243.19, 549.94 202.19, 621.67 119.05 M490.59 282.04 C521.13 248.08, 550.71 212.84, 621.15 131.85 M490.59 282.04 C544.21 220.2, 596.4 161.61, 621.15 131.85 M501.22 282 C531.69 245.71, 564.91 211.03, 621.28 143.89 M501.22 282 C539.61 235.61, 579.81 190.96, 621.28 143.89 M511.85 281.97 C546.4 244.48, 577.31 207.28, 621.41 155.93 M511.85 281.97 C540.35 250.66, 566.61 219.11, 621.41 155.93 M522.48 281.93 C550.15 251.06, 578.17 216.94, 621.55 167.97 M522.48 281.93 C553.93 244.29, 586.29 205.84, 621.55 167.97 M533.11 281.9 C565.61 244.9, 600.09 205.11, 621.68 180.01 M533.11 281.9 C564.14 244.35, 596.79 208.57, 621.68 180.01 M543.08 282.62 C565 256.53, 588.64 229.71, 621.16 192.81 M543.08 282.62 C563.02 259.36, 584.27 235.59, 621.16 192.81 M553.71 282.58 C569.94 265.81, 584.73 251.02, 621.29 204.85 M553.71 282.58 C576.65 254.35, 602.21 226.71, 621.29 204.85 M564.34 282.55 C580.08 265.46, 592.99 248.56, 621.42 216.89 M564.34 282.55 C583.76 260.57, 600.75 240.94, 621.42 216.89 M574.97 282.52 C587.99 271.28, 596.41 256.08, 621.56 228.93 M574.97 282.52 C584.47 272.03, 594.39 261.04, 621.56 228.93 M587.57 280.22 C595.96 267.5, 609.35 257.35, 621.03 241.73 M587.57 280.22 C599.78 265.63, 611.32 251.73, 621.03 241.73 M599.52 278.67 C608.01 272.31, 612.74 264.82, 623.13 251.5 M599.52 278.67 C607.7 268.74, 617.51 259.35, 623.13 251.5" stroke="#a5d8ff" stroke-width="1" fill="none"></path><path d="M32 0 M32 0 C253.06 1.88, 474.28 1.59, 587 0 M32 0 C180.22 2.11, 327.89 1.77, 587 0 M587 0 C610.1 1.87, 620.5 11.53, 619 32 M587 0 C607.61 -0.62, 620.69 10.05, 619 32 M619 32 C619.72 79.56, 620.83 125.21, 619 248 M619 32 C618.03 100.17, 617.54 169.45, 619 248 M619 248 C619.68 268.51, 607.57 278.47, 587 280 M619 248 C618.83 267.98, 607.45 278.98, 587 280 M587 280 C471.46 279.93, 355.9 280.56, 32 280 M587 280 C460.84 278.58, 334.53 278.61, 32 280 M32 280 C11.74 281.89, 0.62 268.69, 0 248 M32 280 C8.94 281.78, 2.25 267.62, 0 248 M0 248 C1.21 161.32, 0.49 78.27, 0 32 M0 248 C-1.09 186.99, -1.6 126.77, 0 32 M0 32 C-1.15 12.2, 9.49 -0.03, 32 0 M0 32 C0.49 11.06, 12.15 -2.29, 32 0" stroke="#1971c2" stroke-width="2" fill="none"></path></g><g transform="translate(1292.7913509323485 250) rotate(0 54.348228454589844 17.5)"><text x="108.69645690917969" y="0" font-family="Virgil, Segoe UI Emoji" font-size="28px" fill="#1971c2" text-anchor="end" style="white-space: pre;" direction="ltr" dominant-baseline="text-before-edge">Node #1</text></g><g stroke-linecap="round" transform="translate(642.7015187626788 115.66236427852084) rotate(0 144 35)"><path d="M4.66 4.05 C4.66 4.05, 4.66 4.05, 4.66 4.05 M4.66 4.05 C4.66 4.05, 4.66 4.05, 4.66 4.05 M2.17 19.11 C5.27 12.18, 11.17 6.36, 17.91 1 M2.17 19.11 C7.51 13.94, 11.01 8.42, 17.91 1 M2.3 31.15 C12.44 17.8, 20.37 8.49, 28.54 0.96 M2.3 31.15 C12.47 19.97, 22.89 6.51, 28.54 0.96 M2.43 43.19 C14.64 29.66, 26.63 16.9, 39.17 0.93 M2.43 43.19 C16.16 29, 28.72 13.43, 39.17 0.93 M3.22 54.48 C17.34 35.06, 33.18 19.16, 49.8 0.89 M3.22 54.48 C14.05 42.69, 25.01 30.38, 49.8 0.89 M5.32 64.25 C23.48 44.78, 38.26 23.55, 60.43 0.86 M5.32 64.25 C20.06 46.61, 37.11 26.88, 60.43 0.86 M10.71 70.26 C26.82 53.82, 39.37 36.55, 71.06 0.82 M10.71 70.26 C30.15 48.37, 50.81 26.2, 71.06 0.82 M18.06 74 C31.63 57, 48.35 40.72, 81.69 0.79 M18.06 74 C41.85 46.76, 65.09 20.64, 81.69 0.79 M28.69 73.96 C41.79 58.24, 55.72 40.47, 92.32 0.75 M28.69 73.96 C53.44 47.24, 77.51 19.22, 92.32 0.75 M39.32 73.93 C62.24 48.01, 85.83 21.93, 102.95 0.72 M39.32 73.93 C57.42 50.5, 77.95 28.67, 102.95 0.72 M49.95 73.89 C62.36 59.04, 76.56 44.12, 113.58 0.69 M49.95 73.89 C64.11 57.69, 79.34 41.05, 113.58 0.69 M60.58 73.86 C81.68 49.04, 104 23.23, 124.21 0.65 M60.58 73.86 C74.91 58.87, 89.24 42.85, 124.21 0.65 M71.21 73.82 C94.71 48.15, 116.42 21.97, 134.84 0.62 M71.21 73.82 C84.55 57.39, 99.28 41.02, 134.84 0.62 M81.84 73.79 C101.26 50.84, 122.06 30.57, 145.47 0.58 M81.84 73.79 C96.37 56.74, 110.41 41.07, 145.47 0.58 M92.47 73.75 C109.82 56.43, 123.47 36.12, 156.1 0.55 M92.47 73.75 C108.03 55.54, 124.64 35.16, 156.1 0.55 M103.1 73.72 C122.85 50.53, 143.19 27.55, 166.73 0.51 M103.1 73.72 C123.19 51.27, 143.89 27.58, 166.73 0.51 M113.73 73.69 C134.7 53.63, 152.6 29.01, 177.36 0.48 M113.73 73.69 C133.69 51.49, 151.43 29.78, 177.36 0.48 M124.36 73.65 C137.52 56.95, 148.46 43.39, 187.99 0.44 M124.36 73.65 C141.85 54.12, 156.86 35.13, 187.99 0.44 M134.33 74.37 C155.04 46.65, 179 24.03, 197.97 1.16 M134.33 74.37 C152.55 52.13, 171.48 31.42, 197.97 1.16 M144.96 74.34 C162.29 52.54, 180.49 32.22, 208.6 1.13 M144.96 74.34 C160.35 54.23, 177.89 35.91, 208.6 1.13 M155.59 74.3 C170.6 53.59, 187.7 35.75, 219.23 1.1 M155.59 74.3 C173.45 54.99, 189.3 35.36, 219.23 1.1 M166.22 74.27 C178.38 58.46, 193.39 42.15, 229.86 1.06 M166.22 74.27 C188.53 48.62, 211.02 24.2, 229.86 1.06 M176.85 74.23 C199.6 49.96, 223.45 22.81, 240.49 1.03 M176.85 74.23 C201.61 45.83, 226.45 17.17, 240.49 1.03 M187.48 74.2 C212.02 43.24, 238.57 17.27, 251.12 0.99 M187.48 74.2 C212.4 47.21, 236.16 19.21, 251.12 0.99 M198.11 74.16 C219.48 48.14, 239.83 24.55, 261.75 0.96 M198.11 74.16 C219.52 48.64, 240.37 24.65, 261.75 0.96 M208.74 74.13 C229.47 50.15, 249.99 26.28, 272.38 0.92 M208.74 74.13 C221.23 58.11, 234.87 43.78, 272.38 0.92 M219.37 74.1 C242.93 48.03, 266.41 19.1, 281.7 2.4 M219.37 74.1 C239 51.15, 259.61 26.66, 281.7 2.4 M230 74.06 C245.69 56.4, 260.76 38.71, 286.42 9.16 M230 74.06 C250.13 51.63, 268.63 29.22, 286.42 9.16 M240.63 74.03 C254.15 58.77, 265.58 44.19, 292.46 14.4 M240.63 74.03 C256.16 57.26, 270.65 39.45, 292.46 14.4 M251.26 73.99 C266.62 57.11, 283.73 38.03, 292.59 26.44 M251.26 73.99 C262.53 59.87, 275.41 45.37, 292.59 26.44 M261.89 73.96 C272.99 60.7, 286.25 48.39, 292.73 38.49 M261.89 73.96 C269.28 64.1, 279.2 55.96, 292.73 38.49 M273.83 72.41 C279.64 64.55, 287.1 58.49, 292.86 50.53 M273.83 72.41 C280.49 64.75, 288.74 55.98, 292.86 50.53" stroke="#ffc9c9" stroke-width="1" fill="none"></path><path d="M17.5 0 M17.5 0 C112.87 -2.69, 206.54 -0.87, 270.5 0 M17.5 0 C75.46 -1.1, 133.47 -1.47, 270.5 0 M270.5 0 C280.87 1.66, 287.91 6.38, 288 17.5 M270.5 0 C283.66 0.34, 287.93 3.58, 288 17.5 M288 17.5 C288.45 30.15, 289.42 44.87, 288 52.5 M288 17.5 C288.09 25.95, 288.99 35.25, 288 52.5 M288 52.5 C286.83 64.12, 281.69 69.98, 270.5 70 M288 52.5 C290.08 64.49, 283.92 71.06, 270.5 70 M270.5 70 C208.41 70.69, 146.58 69.97, 17.5 70 M270.5 70 C210.99 70, 152.82 70.57, 17.5 70 M17.5 70 C4.48 71.19, 0.33 64.89, 0 52.5 M17.5 70 C4.4 68.58, 0.46 64.65, 0 52.5 M0 52.5 C-0.67 41.57, 0.43 30.57, 0 17.5 M0 52.5 C-0.24 43.57, 1.11 33.78, 0 17.5 M0 17.5 C-1.65 6.39, 4.75 1.75, 17.5 0 M0 17.5 C-0.28 7.96, 7.99 1.32, 17.5 0" stroke="#e03131" stroke-width="2" fill="none"></path></g><g transform="translate(647.7015187626788 133.16236427852084) rotate(0 79.52033996582031 17.5)"><text x="0" y="0" font-family="Virgil, Segoe UI Emoji" font-size="28px" fill="#e03131" text-anchor="start" style="white-space: pre;" direction="ltr" dominant-baseline="text-before-edge">NodePort A</text></g><g stroke-linecap="round" transform="translate(787.487807841528 348.7835630916413) rotate(0 309.5 140)"><path d="M7.86 8.16 C7.86 8.16, 7.86 8.16, 7.86 8.16 M7.86 8.16 C7.86 8.16, 7.86 8.16, 7.86 8.16 M6.68 21.71 C9.6 17.03, 17.93 9.4, 21.12 5.11 M6.68 21.71 C11.03 15.8, 15.44 10.63, 21.12 5.11 M4.85 36.01 C10.25 27.19, 19.49 19, 34.37 2.05 M4.85 36.01 C11.86 26.63, 19.49 19.28, 34.37 2.05 M4.98 48.06 C16.21 38.01, 26.24 23.42, 45 2.02 M4.98 48.06 C12.89 38.24, 22.49 26.79, 45 2.02 M5.11 60.1 C24.18 39.16, 42.61 20.57, 55.63 1.98 M5.11 60.1 C21.85 40.89, 38.79 22.07, 55.63 1.98 M4.59 72.89 C24.12 49.63, 39.54 28.54, 66.26 1.95 M4.59 72.89 C19.94 57.83, 33.33 40.21, 66.26 1.95 M4.72 84.93 C19.81 67.33, 33.82 52.28, 76.89 1.91 M4.72 84.93 C21.26 65.58, 37.12 46.97, 76.89 1.91 M4.86 96.97 C38.16 60.9, 67.1 24.31, 87.52 1.88 M4.86 96.97 C23.73 76.17, 41.4 55.11, 87.52 1.88 M4.99 109.01 C31.76 80.73, 55.63 50.56, 98.15 1.85 M4.99 109.01 C37.23 73.59, 67.16 38.09, 98.15 1.85 M5.12 121.06 C37.61 85.44, 66.59 48.57, 108.78 1.81 M5.12 121.06 C36.53 84.76, 68.26 48.38, 108.78 1.81 M5.26 133.1 C46.96 85.67, 88.7 36.7, 119.41 1.78 M5.26 133.1 C43.62 90.86, 80.25 47.4, 119.41 1.78 M4.73 145.89 C32.01 114.77, 61.02 80.98, 130.04 1.74 M4.73 145.89 C33.33 114.15, 59.89 83.85, 130.04 1.74 M4.87 157.93 C32.76 122.36, 64.77 87.22, 140.67 1.71 M4.87 157.93 C38.81 119.03, 72.17 79.92, 140.67 1.71 M5 169.97 C58.46 109.14, 109.62 50.46, 150.65 2.43 M5 169.97 C52.13 112.73, 100.94 57.13, 150.65 2.43 M5.13 182.01 C47.73 135.98, 90.66 86.92, 161.28 2.39 M5.13 182.01 C43.08 138.19, 80.91 93.44, 161.28 2.39 M5.27 194.05 C62.6 126.66, 123.48 59.67, 171.91 2.36 M5.27 194.05 C44.95 149.65, 84.06 105.35, 171.91 2.36 M5.4 206.1 C56.06 150.28, 103.29 91.27, 182.54 2.32 M5.4 206.1 C74.85 123.73, 146.43 42.46, 182.54 2.32 M4.88 218.89 C53.34 164.34, 104.82 105.42, 193.17 2.29 M4.88 218.89 C69.48 146.69, 131.9 72.64, 193.17 2.29 M5.01 230.93 C77.09 149.21, 146.07 66.8, 203.8 2.26 M5.01 230.93 C68.33 158.67, 131.7 85.22, 203.8 2.26 M5.14 242.97 C80.32 157.79, 153.54 71.56, 214.43 2.22 M5.14 242.97 C69.03 170.67, 132.9 98.98, 214.43 2.22 M2.65 258.03 C69.07 180.31, 136.65 105.67, 225.06 2.19 M2.65 258.03 C77.68 170.75, 153.94 82.35, 225.06 2.19 M4.75 267.81 C81.27 177.96, 161.03 88.65, 235.69 2.15 M4.75 267.81 C95.35 160.91, 187.08 55.55, 235.69 2.15 M10.79 273.06 C71.66 203.87, 131.64 136.84, 246.32 2.12 M10.79 273.06 C88.66 181.61, 167 91.82, 246.32 2.12 M16.17 279.06 C93.71 185.38, 173.58 94.45, 256.95 2.08 M16.17 279.06 C95.89 186.41, 175.89 95.18, 256.95 2.08 M23.52 282.8 C89.89 207.56, 155.85 131.25, 267.58 2.05 M23.52 282.8 C93.07 202.09, 163.42 121.39, 267.58 2.05 M34.81 282.01 C99.37 205.8, 165.77 131.24, 278.21 2.01 M34.81 282.01 C92.25 215.42, 150.41 149.56, 278.21 2.01 M45.44 281.98 C126.02 190.93, 207.35 97.99, 288.84 1.98 M45.44 281.98 C126.14 189.19, 207.52 96.17, 288.84 1.98 M56.07 281.94 C138.74 189.68, 217.88 95.62, 299.47 1.94 M56.07 281.94 C121.83 204.47, 188.2 128.99, 299.47 1.94 M66.7 281.91 C147.67 188.15, 229.64 93.33, 310.1 1.91 M66.7 281.91 C141.79 195.69, 216.44 109.67, 310.1 1.91 M76.67 282.63 C149.81 201.55, 221.35 118.34, 320.73 1.88 M76.67 282.63 C130.65 217.24, 186.67 153.46, 320.73 1.88 M87.3 282.59 C164.96 194.95, 239.59 110.04, 331.36 1.84 M87.3 282.59 C185.22 172.1, 282.02 60.58, 331.36 1.84 M97.93 282.56 C187.39 180.99, 277.07 80.04, 341.99 1.81 M97.93 282.56 C176.1 191.97, 255.72 102.18, 341.99 1.81 M108.56 282.52 C203.52 171.96, 300.04 61.04, 352.62 1.77 M108.56 282.52 C182 196.48, 256.73 111.08, 352.62 1.77 M119.19 282.49 C211.87 174.17, 306.08 67.23, 363.25 1.74 M119.19 282.49 C166.87 225.55, 215.66 168.65, 363.25 1.74 M129.82 282.46 C191.71 210.42, 254.48 139.29, 373.88 1.7 M129.82 282.46 C193.86 209.53, 258.01 133.96, 373.88 1.7 M140.45 282.42 C234.09 175.18, 327.43 66.08, 383.85 2.42 M140.45 282.42 C221.24 188.63, 302.43 94.81, 383.85 2.42 M151.08 282.39 C220.18 201.69, 288.1 124.64, 394.48 2.39 M151.08 282.39 C211.78 215.1, 271.4 146.24, 394.48 2.39 M161.71 282.35 C226.86 208.18, 290.53 133.25, 405.11 2.35 M161.71 282.35 C215.53 216.84, 271.68 152.85, 405.11 2.35 M172.34 282.32 C264.47 174.99, 358.46 67.19, 415.74 2.32 M172.34 282.32 C252.3 187.48, 332.92 95.8, 415.74 2.32 M182.97 282.28 C258.59 196.45, 331.28 110.99, 426.37 2.29 M182.97 282.28 C232.32 223.28, 283.53 165.24, 426.37 2.29 M193.6 282.25 C289.66 169.66, 387.1 60.65, 437 2.25 M193.6 282.25 C277.82 184.71, 362.09 89.16, 437 2.25 M204.23 282.21 C258.82 219.28, 312.4 155.43, 447.63 2.22 M204.23 282.21 C260.77 216.09, 317.35 149.12, 447.63 2.22 M214.86 282.18 C281.41 208.83, 347.2 134.6, 458.26 2.18 M214.86 282.18 C272.52 218.19, 327.26 154.42, 458.26 2.18 M225.49 282.14 C316.92 178.87, 406.55 75.18, 468.89 2.15 M225.49 282.14 C297.98 199.76, 370.37 116.9, 468.89 2.15 M236.12 282.11 C303.35 204.3, 371.96 128.27, 479.52 2.11 M236.12 282.11 C299.23 210.83, 362.06 137.47, 479.52 2.11 M246.75 282.08 C320.68 199.17, 391.75 114.8, 490.15 2.08 M246.75 282.08 C296.64 225.16, 345.6 169.95, 490.15 2.08 M257.38 282.04 C313.18 220.35, 366.08 158.65, 500.78 2.04 M257.38 282.04 C316.74 213.8, 376.91 145.19, 500.78 2.04 M268.01 282.01 C363.95 171.96, 458.24 62.69, 511.41 2.01 M268.01 282.01 C364.43 169.76, 460.66 59.76, 511.41 2.01 M278.64 281.97 C332.76 220.88, 385.43 158.34, 522.04 1.98 M278.64 281.97 C353.87 195.22, 430.31 107.69, 522.04 1.98 M289.27 281.94 C352.76 208.84, 417.84 133.87, 532.67 1.94 M289.27 281.94 C375.53 186.18, 458.83 89.39, 532.67 1.94 M299.9 281.9 C376.37 193.88, 453.1 107.15, 543.3 1.91 M299.9 281.9 C377.96 191.78, 456.13 102.85, 543.3 1.91 M309.88 282.62 C388.9 190.77, 467.34 98.36, 553.93 1.87 M309.88 282.62 C394.84 183.69, 481.44 83.32, 553.93 1.87 M320.51 282.59 C385.33 208.34, 452.92 132.51, 564.56 1.84 M320.51 282.59 C385.05 210.66, 447.75 137.47, 564.56 1.84 M331.14 282.55 C391.59 216.05, 451.71 146.19, 575.19 1.8 M331.14 282.55 C417.05 184.47, 502.87 86.97, 575.19 1.8 M341.77 282.52 C433.47 179.71, 524.63 75.66, 587.14 0.26 M341.77 282.52 C399.99 214.84, 458.9 146.45, 587.14 0.26 M352.4 282.49 C418.54 205.58, 488.22 125.99, 596.45 1.73 M352.4 282.49 C421.89 205.01, 490.64 127.12, 596.45 1.73 M363.03 282.45 C415.64 221.29, 467.75 162.07, 604.46 4.72 M363.03 282.45 C438.45 194.23, 514.55 106.76, 604.46 4.72 M373.66 282.42 C450.06 193.13, 528.47 101.66, 611.81 8.46 M373.66 282.42 C453.91 192.34, 532.45 101.4, 611.81 8.46 M384.29 282.38 C464.82 189.72, 547.36 94.18, 617.19 14.46 M384.29 282.38 C442.59 216.18, 500.16 150.86, 617.19 14.46 M394.92 282.35 C462.93 204.48, 534.48 124.04, 621.26 21.97 M394.92 282.35 C468.33 201.29, 539.98 118.91, 621.26 21.97 M405.55 282.31 C449.25 230.25, 496.23 177.12, 621.39 34.01 M405.55 282.31 C480.02 197.43, 553.88 112.13, 621.39 34.01 M416.18 282.28 C488.09 197.3, 559.04 116.47, 621.53 46.05 M416.18 282.28 C471.73 218.65, 527.75 153.36, 621.53 46.05 M426.81 282.24 C500.5 197.41, 575.08 114.36, 621.66 58.1 M426.81 282.24 C469.85 230.81, 512.57 181.87, 621.66 58.1 M437.44 282.21 C474.62 238.21, 514.29 191.2, 621.14 70.89 M437.44 282.21 C486.42 224.94, 536.35 168.85, 621.14 70.89 M448.07 282.18 C508.98 216.04, 565.16 149.17, 621.27 82.93 M448.07 282.18 C493.49 231, 536.72 180.12, 621.27 82.93 M458.7 282.14 C503.33 229.18, 551.33 174.68, 621.4 94.97 M458.7 282.14 C522.07 207.2, 588.03 133.77, 621.4 94.97 M469.33 282.11 C518.65 226.37, 564.35 172.64, 621.54 107.01 M469.33 282.11 C515.82 228.16, 562.72 172.69, 621.54 107.01 M479.96 282.07 C530.12 222.58, 578.96 166.01, 621.67 119.05 M479.96 282.07 C535.78 220.07, 590.08 156.21, 621.67 119.05 M490.59 282.04 C522.72 244.87, 553.56 208.41, 621.15 131.85 M490.59 282.04 C518.57 250.12, 545.72 218.4, 621.15 131.85 M501.22 282 C531.14 245.45, 564.59 210.97, 621.28 143.89 M501.22 282 C547.35 229.86, 593.4 177.87, 621.28 143.89 M511.85 281.97 C555.87 234.99, 597.94 184.11, 621.41 155.93 M511.85 281.97 C541.84 246.26, 574.76 209.31, 621.41 155.93 M522.48 281.93 C545.76 256.19, 569.27 228.6, 621.55 167.97 M522.48 281.93 C556.7 240.58, 593.89 200.44, 621.55 167.97 M533.11 281.9 C561.36 250.16, 589.69 215.23, 621.68 180.01 M533.11 281.9 C553.77 259.28, 573.18 235.07, 621.68 180.01 M543.08 282.62 C569.38 252.08, 599.46 220.53, 621.16 192.81 M543.08 282.62 C570.47 250.89, 596.03 220.63, 621.16 192.81 M553.71 282.58 C577.23 254.33, 602.28 224.71, 621.29 204.85 M553.71 282.58 C568.8 266.47, 583.3 249.93, 621.29 204.85 M564.34 282.55 C581.5 262.03, 600.86 241.03, 621.42 216.89 M564.34 282.55 C585.56 258.9, 604.74 234.44, 621.42 216.89 M574.97 282.52 C590.21 263.63, 604.08 248.72, 621.56 228.93 M574.97 282.52 C592.13 263.33, 609.37 242.19, 621.56 228.93 M587.57 280.22 C593.74 270.42, 602 262.94, 621.03 241.73 M587.57 280.22 C596.17 270.12, 605.33 259.67, 621.03 241.73 M599.52 278.67 C609.25 270.05, 613.89 259.72, 623.13 251.5 M599.52 278.67 C607.76 269.23, 616.15 259.8, 623.13 251.5" stroke="#a5d8ff" stroke-width="1" fill="none"></path><path d="M32 0 M32 0 C254.19 0.21, 475.12 -0.29, 587 0 M32 0 C236.28 -1.1, 441.2 -1.23, 587 0 M587 0 C608.76 -0.23, 620.61 11.72, 619 32 M587 0 C607.57 2.11, 619.24 11.68, 619 32 M619 32 C618.25 101.96, 619.11 167.98, 619 248 M619 32 C619.45 96.95, 620.23 162.41, 619 248 M619 248 C619.4 269, 610.23 278.48, 587 280 M619 248 C619.21 267.34, 606.64 278.19, 587 280 M587 280 C416.97 279.02, 247.71 279.13, 32 280 M587 280 C456.11 280.01, 325.47 279.92, 32 280 M32 280 C10.8 278.7, 1.59 269.73, 0 248 M32 280 C8.52 278.74, -0.19 267.2, 0 248 M0 248 C1.78 194.9, 1.77 140.04, 0 32 M0 248 C-1.03 188.65, -0.6 129.14, 0 32 M0 32 C-0.42 12.5, 10.84 -0.97, 32 0 M0 32 C-0.49 12.85, 11.56 -1.44, 32 0" stroke="#1971c2" stroke-width="2" fill="none"></path></g><g transform="translate(1280.4432979538328 588.7835630916413) rotate(0 60.522254943847656 17.5)"><text x="121.04450988769531" y="0" font-family="Virgil, Segoe UI Emoji" font-size="28px" fill="#1971c2" text-anchor="end" style="white-space: pre;" direction="ltr" dominant-baseline="text-before-edge">Node #2</text></g><g stroke-linecap="round" transform="translate(642.7015187626788 453.7835630916413) rotate(0 144 35)"><path d="M4.66 4.05 C4.66 4.05, 4.66 4.05, 4.66 4.05 M4.66 4.05 C4.66 4.05, 4.66 4.05, 4.66 4.05 M2.17 19.11 C8.01 12.99, 13.49 5.96, 17.91 1 M2.17 19.11 C5.84 13.99, 10.11 8.71, 17.91 1 M2.3 31.15 C8.19 21.78, 16.62 14, 28.54 0.96 M2.3 31.15 C8.15 24.75, 14.28 17.61, 28.54 0.96 M2.43 43.19 C15.3 28.19, 33.25 8.48, 39.17 0.93 M2.43 43.19 C17.52 25.72, 31.6 10.28, 39.17 0.93 M3.22 54.48 C16.42 38.34, 28.32 24.37, 49.8 0.89 M3.22 54.48 C14.09 41.97, 25.58 29.4, 49.8 0.89 M5.32 64.25 C15.46 50.67, 26.09 40.95, 60.43 0.86 M5.32 64.25 C23.81 43.23, 44.27 20.42, 60.43 0.86 M10.71 70.26 C24.98 52.92, 41.48 34.89, 71.06 0.82 M10.71 70.26 C23.62 56.78, 34.41 43.16, 71.06 0.82 M18.06 74 C36.72 49.33, 59.88 28.42, 81.69 0.79 M18.06 74 C41.53 47.52, 65.93 20.79, 81.69 0.79 M28.69 73.96 C54.42 42.92, 80.39 17.23, 92.32 0.75 M28.69 73.96 C49.55 49.01, 70.79 25.97, 92.32 0.75 M39.32 73.93 C58.43 52.66, 77.13 31, 102.95 0.72 M39.32 73.93 C58.49 53.31, 76.43 31.42, 102.95 0.72 M49.95 73.89 C75.27 43.82, 99.1 17.33, 113.58 0.69 M49.95 73.89 C72.91 46.21, 97.87 19.65, 113.58 0.69 M60.58 73.86 C80.57 48.36, 102.78 24.82, 124.21 0.65 M60.58 73.86 C73.17 59.13, 87.34 42.82, 124.21 0.65 M71.21 73.82 C86.16 56.14, 104.92 38.13, 134.84 0.62 M71.21 73.82 C96.06 44.88, 120.48 17.66, 134.84 0.62 M81.84 73.79 C100.35 54.07, 119.22 31.62, 145.47 0.58 M81.84 73.79 C95.49 57.6, 109.38 41.95, 145.47 0.58 M92.47 73.75 C113.9 48.55, 138.93 22.16, 156.1 0.55 M92.47 73.75 C117.11 46.13, 141.03 17.09, 156.1 0.55 M103.1 73.72 C122.53 46.77, 145.23 23.6, 166.73 0.51 M103.1 73.72 C120.43 53.58, 138.43 33.6, 166.73 0.51 M113.73 73.69 C140.51 46.77, 164.3 16.64, 177.36 0.48 M113.73 73.69 C131.47 52.17, 149.62 30.4, 177.36 0.48 M124.36 73.65 C147.82 46.79, 169.5 21.94, 187.99 0.44 M124.36 73.65 C147.79 48.41, 169.99 24.02, 187.99 0.44 M134.33 74.37 C153.79 53.47, 172.44 32.16, 197.97 1.16 M134.33 74.37 C157.56 48.3, 179.23 22.1, 197.97 1.16 M144.96 74.34 C161.29 54.7, 176.45 36.54, 208.6 1.13 M144.96 74.34 C158.48 57.7, 172.68 41.26, 208.6 1.13 M155.59 74.3 C171.48 57.14, 186.48 38.24, 219.23 1.1 M155.59 74.3 C180.52 47.22, 204.57 17.66, 219.23 1.1 M166.22 74.27 C186.98 53.44, 206.33 30.71, 229.86 1.06 M166.22 74.27 C185.7 50.09, 206.44 27.47, 229.86 1.06 M176.85 74.23 C191.82 57.64, 207.04 39.47, 240.49 1.03 M176.85 74.23 C195.03 54.33, 213 32.88, 240.49 1.03 M187.48 74.2 C203.66 56.72, 219.32 38.89, 251.12 0.99 M187.48 74.2 C206.24 51.19, 224.64 29.23, 251.12 0.99 M198.11 74.16 C214.01 58.31, 228.76 39.62, 261.75 0.96 M198.11 74.16 C214.62 55.2, 230.64 34.67, 261.75 0.96 M208.74 74.13 C220.83 58.46, 235.19 42.84, 272.38 0.92 M208.74 74.13 C223.84 56.52, 237.88 38.71, 272.38 0.92 M219.37 74.1 C242.49 47.09, 264.8 20.73, 281.7 2.4 M219.37 74.1 C239.34 50.31, 259.4 28.29, 281.7 2.4 M230 74.06 C250.69 50.75, 273.15 25.93, 286.42 9.16 M230 74.06 C244.27 58.54, 257.76 41.98, 286.42 9.16 M240.63 74.03 C260.23 50.65, 280.61 28.79, 292.46 14.4 M240.63 74.03 C258.95 52.16, 276.82 32.1, 292.46 14.4 M251.26 73.99 C262.72 61.05, 278.39 43.21, 292.59 26.44 M251.26 73.99 C261.88 61.11, 272.01 50.48, 292.59 26.44 M261.89 73.96 C270.54 64.45, 275.44 58.84, 292.73 38.49 M261.89 73.96 C273.92 60.6, 284.09 47.45, 292.73 38.49 M273.83 72.41 C279.24 67.04, 282.99 59.88, 292.86 50.53 M273.83 72.41 C278.93 67.82, 282.8 62.27, 292.86 50.53" stroke="#ffc9c9" stroke-width="1" fill="none"></path><path d="M17.5 0 M17.5 0 C103.01 0.22, 189.62 -1.43, 270.5 0 M17.5 0 C107 -1.02, 195.93 -1.15, 270.5 0 M270.5 0 C281.24 1.01, 286.27 3.86, 288 17.5 M270.5 0 C283.85 1.22, 287.23 7.29, 288 17.5 M288 17.5 C288.15 25.85, 288.04 32.19, 288 52.5 M288 17.5 C288.74 29.31, 288.51 43.59, 288 52.5 M288 52.5 C286.34 62.36, 283.91 70.75, 270.5 70 M288 52.5 C286.75 64.28, 282.8 68.44, 270.5 70 M270.5 70 C201.66 71.86, 133.39 70.28, 17.5 70 M270.5 70 C189.86 68.44, 107.43 68.17, 17.5 70 M17.5 70 C6.51 68.9, -1.72 63.11, 0 52.5 M17.5 70 C4.22 72.07, -1.74 65.32, 0 52.5 M0 52.5 C1.31 44.64, 0.64 33.46, 0 17.5 M0 52.5 C-0.7 43.7, -0.02 35.89, 0 17.5 M0 17.5 C1.67 6.63, 5.19 -0.81, 17.5 0 M0 17.5 C-0.86 6.15, 4.14 0.72, 17.5 0" stroke="#e03131" stroke-width="2" fill="none"></path></g><g transform="translate(647.7015187626788 471.2835630916413) rotate(0 79.52033996582031 17.5)"><text x="0" y="0" font-family="Virgil, Segoe UI Emoji" font-size="28px" fill="#e03131" text-anchor="start" style="white-space: pre;" direction="ltr" dominant-baseline="text-before-edge">NodePort A</text></g><g mask="url(#mask-u0MEhdkKs201aWAanKZn_)" stroke-linecap="round"><g transform="translate(278.5418170785047 400.8777156394867) rotate(0 173.40956737889388 -124.64282431994911)"><path d="M-0.8 1.09 C56.96 -40.53, 289.65 -208.22, 347.62 -250.38" stroke="#1e1e1e" stroke-width="4.5" fill="none" stroke-dasharray="8 12"></path></g></g><mask id="mask-u0MEhdkKs201aWAanKZn_"><rect x="0" y="0" fill="#fff" width="725.8071036486671" height="751.5692291454629"></rect><rect x="404.14025015850785" y="258.0319588864986" fill="#000" width="96.06842041015625" height="35" opacity="1"></rect></mask><g transform="translate(404.1402501585078 258.0319588864986) rotate(0 47.811134298890806 18.202932433038967)"><text x="48.034210205078125" y="0" font-family="Virgil, Segoe UI Emoji" font-size="28px" fill="#1e1e1e" text-anchor="middle" style="white-space: pre;" direction="ltr" dominant-baseline="text-before-edge">Member</text></g><g mask="url(#mask-eaZcAmOIdKq2q5C9qAN9U)" stroke-linecap="round"><g transform="translate(352.4172570583284 487.5185307673729) rotate(0 145.64283685974118 -1.5241912856187247)"><path d="M0.07 -1.08 C48.77 -1.53, 242.94 -2.09, 291.22 -1.95" stroke="#1e1e1e" stroke-width="4.5" fill="none" stroke-dasharray="8 12"></path></g></g><mask id="mask-eaZcAmOIdKq2q5C9qAN9U"><rect x="0" y="0" fill="#fff" width="743.1776809076893" height="588.8794589807627"></rect><rect x="449.76325877793073" y="469.33806666067795" fill="#000" width="96.06842041015625" height="35" opacity="1"></rect></mask><g transform="translate(449.7632587779307 469.33806666067795) rotate(0 48.29683514013891 16.6562728210762)"><text x="48.034210205078125" y="0" font-family="Virgil, Segoe UI Emoji" font-size="28px" fill="#1e1e1e" text-anchor="middle" style="white-space: pre;" direction="ltr" dominant-baseline="text-before-edge">Member</text></g><g mask="url(#mask-Q27q-l7KmiVlpT4tK9qf9)" stroke-linecap="round"><g transform="translate(274.23370351177766 597.9119218971689) rotate(0 178.92536342130086 116.79640182390388)"><path d="M-0.2 1 C59.65 39.91, 298.08 193.88, 358.05 232.6" stroke="#1e1e1e" stroke-width="4.5" fill="none" stroke-dasharray="8 12"></path></g></g><mask id="mask-Q27q-l7KmiVlpT4tK9qf9"><rect x="0" y="0" fill="#fff" width="733.1776809076893" height="930.2021843680019"></rect><rect x="405.67148200465533" y="696.5570531325853" fill="#000" width="96.06842041015625" height="35" opacity="1"></rect></mask><g transform="translate(405.6714820046554 696.5570531325855) rotate(0 47.48758492842319 18.151270588487378)"><text x="48.034210205078125" y="0" font-family="Virgil, Segoe UI Emoji" font-size="28px" fill="#1e1e1e" text-anchor="middle" style="white-space: pre;" direction="ltr" dominant-baseline="text-before-edge">Member</text></g><g stroke-linecap="round" transform="translate(1051.3639384564894 359.46330165373286) rotate(0 131.66666666666674 125.98692810457523)"><path d="M11.99 116.43 C11.99 116.43, 11.99 116.43, 11.99 116.43 M11.99 116.43 C11.99 116.43, 11.99 116.43, 11.99 116.43 M13.44 126.96 C20.88 118.7, 23.63 116.02, 27.87 110.35 M13.44 126.96 C16.81 121.04, 21.92 115.88, 27.87 110.35 M15.54 136.73 C55.96 88.85, 94.44 45.43, 123.79 12.21 M15.54 136.73 C53.03 94.49, 88.43 52.69, 123.79 12.21 M20.26 143.49 C50.71 110.87, 77.5 74.83, 135.73 10.66 M20.26 143.49 C63.79 95.03, 105.24 44.68, 135.73 10.66 M25.65 149.49 C61.95 107.57, 99.49 63.83, 143.74 13.65 M25.65 149.49 C56.61 113.32, 90.66 75.87, 143.74 13.65 M31.03 155.5 C78.24 103.15, 122.3 48.53, 150.43 18.14 M31.03 155.5 C65.56 116.75, 98.09 78.22, 150.43 18.14 M37.06 160.75 C66.04 124.68, 99.67 89.34, 156.47 23.39 M37.06 160.75 C68.79 121.63, 103.84 82.66, 156.47 23.39 M42.45 166.75 C72.47 134.84, 99.81 100.44, 162.5 28.64 M42.45 166.75 C87.7 113.8, 133.41 59.57, 162.5 28.64 M48.48 172 C77.8 141.27, 105.38 105.77, 167.89 34.64 M48.48 172 C86.29 127.77, 124.87 85.32, 167.89 34.64 M54.52 177.25 C90.06 135.61, 126.52 96.45, 173.92 39.89 M54.52 177.25 C99.56 123.29, 146.79 68.75, 173.92 39.89 M59.9 183.25 C88.2 152.52, 111.47 125.62, 179.96 45.14 M59.9 183.25 C103.39 134.31, 145.79 84.7, 179.96 45.14 M65.94 188.5 C90.75 157.79, 115.8 129.13, 185.34 51.14 M65.94 188.5 C104.29 144.88, 141.07 101.07, 185.34 51.14 M71.98 193.75 C105.72 156.17, 134.59 121.51, 191.38 56.39 M71.98 193.75 C97.28 166.17, 121.95 136.94, 191.38 56.39 M77.36 199.75 C115.75 151.31, 158.86 105.15, 196.76 62.39 M77.36 199.75 C112.24 157.36, 148.83 116.38, 196.76 62.39 M83.4 205 C107.04 177.28, 134.01 147.71, 202.8 67.64 M83.4 205 C118.56 164.65, 154.79 126.54, 202.8 67.64 M88.78 211 C114.22 181.34, 144.86 150.23, 208.18 73.64 M88.78 211 C137.64 156.05, 184.46 102.52, 208.18 73.64 M94.82 216.25 C137.29 164.92, 181.91 112.64, 214.22 78.89 M94.82 216.25 C127.25 181.5, 156.32 147.4, 214.22 78.89 M100.85 221.5 C130.29 187.97, 158.8 153.27, 220.26 84.14 M100.85 221.5 C147.58 167.92, 195.02 114.17, 220.26 84.14 M106.24 227.5 C137.24 196.37, 164.19 162.52, 225.64 90.14 M106.24 227.5 C150.48 178.69, 193.13 128.97, 225.64 90.14 M112.27 232.75 C136.2 206.3, 163.49 174.72, 231.68 95.39 M112.27 232.75 C157.99 179.69, 203.81 126.55, 231.68 95.39 M118.31 238 C144.3 209.45, 168.01 178.76, 237.06 101.4 M118.31 238 C155.29 196.26, 191.52 153.37, 237.06 101.4 M125.01 242.49 C168 193.26, 210.25 144.62, 243.1 106.64 M125.01 242.49 C152.25 213.45, 177.11 183.77, 243.1 106.64 M132.36 246.23 C178.55 191.74, 224.32 140.45, 249.13 111.89 M132.36 246.23 C156.08 219.94, 178.78 191.2, 249.13 111.89 M155.45 231.86 C186.41 192.67, 223.47 154.49, 253.86 118.65 M155.45 231.86 C177.58 208.42, 198.95 184.3, 253.86 118.65 M219.88 169.94 C230.11 160.98, 237.88 147.81, 255.3 129.18 M219.88 169.94 C231.93 154.46, 245.66 139.84, 255.3 129.18" stroke="#b2f2bb" stroke-width="1" fill="none"></path><path d="M165 31.5 M165 31.5 C182.31 47.96, 198.39 65.7, 230.33 94.5 M230.33 94.5 C262.52 126.94, 263.22 124.5, 230.33 157.5 M230.33 157.5 C207.97 182.23, 182.02 203.35, 165 220.47 M165 220.47 C131.23 251.25, 131.42 253.76, 99 220.47 M99 220.47 C86.46 208.22, 69.9 192.12, 33 157.5 M33 157.5 C-1.98 125.57, -1.53 126, 33 94.5 M33 94.5 C45.56 80.3, 63.82 64.29, 99 31.5 M99 31.5 C130.38 -1.26, 130.91 -0.95, 165 31.5" stroke="#2f9e44" stroke-width="2.5" fill="none" stroke-dasharray="8 10"></path></g><g transform="translate(1127.1162399905065 431.1771046890713) rotate(0 56.081031799316406 54.27966101694915)"><text x="56.081031799316406" y="0" font-family="Virgil, Segoe UI Emoji" font-size="28.949152542372875px" fill="#2f9e44" text-anchor="middle" style="white-space: pre;" direction="ltr" dominant-baseline="text-before-edge">Pod of </text><text x="56.081031799316406" y="36.1864406779661" font-family="Virgil, Segoe UI Emoji" font-size="28.949152542372875px" fill="#2f9e44" text-anchor="middle" style="white-space: pre;" direction="ltr" dominant-baseline="text-before-edge">Service </text><text x="56.081031799316406" y="72.3728813559322" font-family="Virgil, Segoe UI Emoji" font-size="28.949152542372875px" fill="#2f9e44" text-anchor="middle" style="white-space: pre;" direction="ltr" dominant-baseline="text-before-edge">A</text></g><g transform="translate(66.3639384564899 35.03943897428974) rotate(0 136.9626007080078 17.5)"><text x="0" y="0" font-family="Virgil, Segoe UI Emoji" font-size="28px" fill="#2f9e44" text-anchor="start" style="white-space: pre;" direction="ltr" dominant-baseline="text-before-edge">Setup for Service A</text></g><g stroke-linecap="round" transform="translate(787.487807841528 690.900459516616) rotate(0 309.5 140)"><path d="M7.86 8.16 C7.86 8.16, 7.86 8.16, 7.86 8.16 M7.86 8.16 C7.86 8.16, 7.86 8.16, 7.86 8.16 M6.68 21.71 C10.7 17.13, 17.77 11.41, 21.12 5.11 M6.68 21.71 C12.69 15.76, 17.77 8.39, 21.12 5.11 M4.85 36.01 C13.12 22.46, 24.43 12.39, 34.37 2.05 M4.85 36.01 C12.79 26.81, 21.2 17.86, 34.37 2.05 M4.98 48.06 C22.56 31.42, 37.34 11.65, 45 2.02 M4.98 48.06 C16 34.41, 27.28 20.53, 45 2.02 M5.11 60.1 C23.9 38.62, 40.79 19.29, 55.63 1.98 M5.11 60.1 C23.83 40.03, 41.45 20.9, 55.63 1.98 M4.59 72.89 C23.46 52.65, 41.52 32.02, 66.26 1.95 M4.59 72.89 C27.12 47.64, 48.07 22.26, 66.26 1.95 M4.72 84.93 C23.24 62.86, 40.57 42.2, 76.89 1.91 M4.72 84.93 C20.06 66.1, 36.14 47.5, 76.89 1.91 M4.86 96.97 C25.25 74.41, 44.78 50.29, 87.52 1.88 M4.86 96.97 C37.13 61.53, 68.54 23.49, 87.52 1.88 M4.99 109.01 C34.48 77.65, 62.79 44.6, 98.15 1.85 M4.99 109.01 C33.72 73.78, 63.93 40.27, 98.15 1.85 M5.12 121.06 C29.08 93.49, 53.65 64.55, 108.78 1.81 M5.12 121.06 C34.55 88.21, 63.47 54.16, 108.78 1.81 M5.26 133.1 C33.78 101.83, 61.46 70.16, 119.41 1.78 M5.26 133.1 C39.13 92.19, 72.7 52.79, 119.41 1.78 M4.73 145.89 C36.23 113.02, 66.18 76.85, 130.04 1.74 M4.73 145.89 C37.49 107.87, 69.73 68.69, 130.04 1.74 M4.87 157.93 C32.15 125.16, 60.97 92.8, 140.67 1.71 M4.87 157.93 C36.79 120.7, 68.18 83.12, 140.67 1.71 M5 169.97 C58.07 108.36, 110.23 47.75, 150.65 2.43 M5 169.97 C51.37 115.61, 98.49 62.32, 150.65 2.43 M5.13 182.01 C63.2 116.94, 121.84 50.33, 161.28 2.39 M5.13 182.01 C43.84 137.95, 81.73 93.5, 161.28 2.39 M5.27 194.05 C67.9 121.14, 130.94 49.9, 171.91 2.36 M5.27 194.05 C64.33 125.43, 123.05 58.29, 171.91 2.36 M5.4 206.1 C59.72 143.82, 117.93 77.01, 182.54 2.32 M5.4 206.1 C50.49 153.62, 95.01 103.21, 182.54 2.32 M4.88 218.89 C47.45 169.48, 87 124.01, 193.17 2.29 M4.88 218.89 C75.31 137.03, 145.6 55.07, 193.17 2.29 M5.01 230.93 C57.43 168.59, 109.87 106.19, 203.8 2.26 M5.01 230.93 C49.76 177.72, 94.82 125.08, 203.8 2.26 M5.14 242.97 C74.99 161.82, 146.68 79.09, 214.43 2.22 M5.14 242.97 C79.12 157.6, 152.68 72.93, 214.43 2.22 M2.65 258.03 C56.91 195.37, 115.38 129.02, 225.06 2.19 M2.65 258.03 C84.75 165.01, 166.25 71.97, 225.06 2.19 M4.75 267.81 C73.44 187.59, 142.87 106.47, 235.69 2.15 M4.75 267.81 C87.93 176.02, 168.19 82.42, 235.69 2.15 M10.79 273.06 C89.59 185.58, 165.96 96.3, 246.32 2.12 M10.79 273.06 C77.4 196.93, 143.47 121.76, 246.32 2.12 M16.17 279.06 C66.64 219.87, 116.75 162.45, 256.95 2.08 M16.17 279.06 C111.1 170.23, 205.72 62.76, 256.95 2.08 M23.52 282.8 C111.92 181.2, 203.32 76.28, 267.58 2.05 M23.52 282.8 C77.49 221.78, 130.8 159.15, 267.58 2.05 M34.81 282.01 C98.83 210.35, 163.53 136.78, 278.21 2.01 M34.81 282.01 C83.56 223.5, 133.3 167.23, 278.21 2.01 M45.44 281.98 C111.35 207.22, 179 128.63, 288.84 1.98 M45.44 281.98 C112.97 204.88, 178.35 129.46, 288.84 1.98 M56.07 281.94 C104.83 224.35, 154.48 167.45, 299.47 1.94 M56.07 281.94 C118.06 208.93, 181.64 136.45, 299.47 1.94 M66.7 281.91 C156.2 180.55, 245.84 78.15, 310.1 1.91 M66.7 281.91 C147.5 190.94, 226.62 100.13, 310.1 1.91 M76.67 282.63 C144.02 201.28, 214.73 123.23, 320.73 1.88 M76.67 282.63 C163.39 182.99, 248.28 85.62, 320.73 1.88 M87.3 282.59 C182.25 171.99, 276.42 63.01, 331.36 1.84 M87.3 282.59 C167.39 190.49, 247.35 98.83, 331.36 1.84 M97.93 282.56 C166.44 200.64, 236.39 119.54, 341.99 1.81 M97.93 282.56 C195.55 169.99, 291.82 59.55, 341.99 1.81 M108.56 282.52 C182.55 198.19, 257.72 114.38, 352.62 1.77 M108.56 282.52 C163.22 216.04, 219.75 152.34, 352.62 1.77 M119.19 282.49 C196.22 193.24, 273.23 103.38, 363.25 1.74 M119.19 282.49 C181.4 212.73, 241.62 142.92, 363.25 1.74 M129.82 282.46 C205.2 196.95, 278.09 112.79, 373.88 1.7 M129.82 282.46 C185 219.51, 240.68 156.47, 373.88 1.7 M140.45 282.42 C235.39 174.03, 328.81 64.59, 383.85 2.42 M140.45 282.42 C210.15 201.52, 280.98 120.73, 383.85 2.42 M151.08 282.39 C244.31 174.75, 336.5 69.09, 394.48 2.39 M151.08 282.39 C233.27 189.39, 313.28 96.63, 394.48 2.39 M161.71 282.35 C221.98 211.88, 281.86 142.79, 405.11 2.35 M161.71 282.35 C214 220.45, 267.35 158.98, 405.11 2.35 M172.34 282.32 C269.52 173.17, 363.57 62.37, 415.74 2.32 M172.34 282.32 C268.61 173.18, 363.72 62.97, 415.74 2.32 M182.97 282.28 C270.18 178.42, 358.62 77.77, 426.37 2.29 M182.97 282.28 C249.89 206.36, 316.56 129.71, 426.37 2.29 M193.6 282.25 C283.38 178.9, 372.49 76.29, 437 2.25 M193.6 282.25 C260.8 203.26, 328.25 125.01, 437 2.25 M204.23 282.21 C281.78 191.56, 360.62 99.96, 447.63 2.22 M204.23 282.21 C258.34 222.59, 311.5 160.25, 447.63 2.22 M214.86 282.18 C309.31 171.04, 404.1 62.15, 458.26 2.18 M214.86 282.18 C286.36 197.48, 359.72 113.33, 458.26 2.18 M225.49 282.14 C284.17 214.41, 343.28 147.53, 468.89 2.15 M225.49 282.14 C307.44 186.57, 390.56 89.7, 468.89 2.15 M236.12 282.11 C324.51 181.61, 410.91 82.62, 479.52 2.11 M236.12 282.11 C329.68 175.33, 421.57 68.66, 479.52 2.11 M246.75 282.08 C327.18 188.04, 410.41 93.83, 490.15 2.08 M246.75 282.08 C310.11 206.67, 374.03 131.96, 490.15 2.08 M257.38 282.04 C349.98 172.95, 441.98 67.37, 500.78 2.04 M257.38 282.04 C322.84 205.17, 391.13 126.83, 500.78 2.04 M268.01 282.01 C360.57 174.14, 453.08 67.96, 511.41 2.01 M268.01 282.01 C348.87 190.77, 429.66 98.34, 511.41 2.01 M278.64 281.97 C329.06 223.19, 380.37 164, 522.04 1.98 M278.64 281.97 C371.15 176.48, 462.58 70.78, 522.04 1.98 M289.27 281.94 C344.73 216.4, 403.84 150.56, 532.67 1.94 M289.27 281.94 C341.73 220.78, 395.3 159.28, 532.67 1.94 M299.9 281.9 C396.38 170.83, 494.31 59.02, 543.3 1.91 M299.9 281.9 C371.24 197.39, 442.78 115.11, 543.3 1.91 M309.88 282.62 C385.37 195.27, 461.7 111.48, 553.93 1.87 M309.88 282.62 C388.67 192.35, 468.81 100.38, 553.93 1.87 M320.51 282.59 C400.95 191.15, 481.15 96.66, 564.56 1.84 M320.51 282.59 C386.53 203.67, 454.17 126.65, 564.56 1.84 M331.14 282.55 C407.92 195.96, 483.4 109.71, 575.19 1.8 M331.14 282.55 C425.26 174.33, 520.15 64.9, 575.19 1.8 M341.77 282.52 C396.92 221.05, 449.08 161.82, 587.14 0.26 M341.77 282.52 C435.11 175.17, 530.17 66.23, 587.14 0.26 M352.4 282.49 C420.31 202.09, 490.76 122.96, 596.45 1.73 M352.4 282.49 C418.22 208.32, 483.88 133.14, 596.45 1.73 M363.03 282.45 C430.14 203.97, 496.23 127.41, 604.46 4.72 M363.03 282.45 C441.57 190.96, 519.48 101.57, 604.46 4.72 M373.66 282.42 C467.76 175.17, 561.58 64.34, 611.81 8.46 M373.66 282.42 C455.25 186.77, 537.95 92.3, 611.81 8.46 M384.29 282.38 C471.43 184.56, 554.87 84.28, 617.19 14.46 M384.29 282.38 C434.92 222.85, 485.32 164.28, 617.19 14.46 M394.92 282.35 C470.11 196.75, 546.18 111.01, 621.26 21.97 M394.92 282.35 C472.8 194.74, 548.97 105.28, 621.26 21.97 M405.55 282.31 C482.18 193.71, 557.94 106.56, 621.39 34.01 M405.55 282.31 C454.9 227.71, 503.06 171.61, 621.39 34.01 M416.18 282.28 C475.17 212.21, 536.97 143.49, 621.53 46.05 M416.18 282.28 C476.44 212.26, 537.8 141.8, 621.53 46.05 M426.81 282.24 C492.12 206.57, 556.79 133.66, 621.66 58.1 M426.81 282.24 C491.05 211.91, 553.94 139.68, 621.66 58.1 M437.44 282.21 C479.04 233.81, 519.7 187.91, 621.14 70.89 M437.44 282.21 C508.29 201.53, 579.15 119.4, 621.14 70.89 M448.07 282.18 C485.11 240.66, 522.88 196.38, 621.27 82.93 M448.07 282.18 C504.41 217.98, 560.68 153.9, 621.27 82.93 M458.7 282.14 C518.47 214.58, 574.8 149.45, 621.4 94.97 M458.7 282.14 C509.92 224.75, 559.25 167.08, 621.4 94.97 M469.33 282.11 C523.38 221.89, 575.11 160.83, 621.54 107.01 M469.33 282.11 C510.66 235.83, 552.01 189.39, 621.54 107.01 M479.96 282.07 C517.22 238.78, 553.71 195.47, 621.67 119.05 M479.96 282.07 C519.38 234.23, 561.62 187.32, 621.67 119.05 M490.59 282.04 C527.31 241.05, 560.72 201.93, 621.15 131.85 M490.59 282.04 C518.99 248.71, 549.05 216.03, 621.15 131.85 M501.22 282 C532.09 246.81, 562.54 213.11, 621.28 143.89 M501.22 282 C536.33 241.59, 571.83 200.5, 621.28 143.89 M511.85 281.97 C552.11 234.96, 592.96 186.31, 621.41 155.93 M511.85 281.97 C543 245.84, 574.09 208.69, 621.41 155.93 M522.48 281.93 C556.42 243.95, 590.03 204.58, 621.55 167.97 M522.48 281.93 C560.97 238.72, 600.38 192.51, 621.55 167.97 M533.11 281.9 C558.63 256.37, 582.68 226.98, 621.68 180.01 M533.11 281.9 C565.72 243.65, 600.38 206.05, 621.68 180.01 M543.08 282.62 C563.49 261.99, 582.83 239.63, 621.16 192.81 M543.08 282.62 C559.53 264.12, 575.06 244.24, 621.16 192.81 M553.71 282.58 C579.26 252.87, 603.53 223.42, 621.29 204.85 M553.71 282.58 C570.53 263.17, 587.43 244.06, 621.29 204.85 M564.34 282.55 C579.35 265.08, 594.45 250.61, 621.42 216.89 M564.34 282.55 C579.77 264.62, 595.77 245.32, 621.42 216.89 M574.97 282.52 C590.44 265.29, 607.33 249.05, 621.56 228.93 M574.97 282.52 C587.27 267.83, 600.34 252.43, 621.56 228.93 M587.57 280.22 C599.74 265.74, 609.37 253.89, 621.03 241.73 M587.57 280.22 C597.11 270.55, 605.47 259.1, 621.03 241.73 M599.52 278.67 C603.17 272.07, 610.57 266.72, 623.13 251.5 M599.52 278.67 C606.88 272.15, 613.2 263.1, 623.13 251.5" stroke="#a5d8ff" stroke-width="1" fill="none"></path><path d="M32 0 M32 0 C246.48 -1.41, 460.29 -0.75, 587 0 M32 0 C246.48 0.38, 461.01 0.36, 587 0 M587 0 C608.23 1.01, 617.93 8.97, 619 32 M587 0 C609.61 1.34, 618.79 10.43, 619 32 M619 32 C617.91 101.73, 617.15 173.72, 619 248 M619 32 C618.06 75.6, 618.06 120.42, 619 248 M619 248 C620.95 271.03, 608.89 279.07, 587 280 M619 248 C620.89 267.57, 608.49 279.79, 587 280 M587 280 C377.23 280.34, 169.56 281.56, 32 280 M587 280 C389.84 281.49, 193.26 281.05, 32 280 M32 280 C8.97 278.32, -1.67 268.95, 0 248 M32 280 C10.49 277.84, 1.7 268.64, 0 248 M0 248 C2.37 198.13, 2.16 144.49, 0 32 M0 248 C-1.2 179.03, -0.62 111.75, 0 32 M0 32 C-1.51 10.51, 9.84 0.3, 32 0 M0 32 C-0.66 8.98, 10.28 1.88, 32 0" stroke="#1971c2" stroke-width="2" fill="none"></path></g><g transform="translate(1282.3473049118406 930.900459516616) rotate(0 59.57025146484375 17.5)"><text x="119.1405029296875" y="0" font-family="Virgil, Segoe UI Emoji" font-size="28px" fill="#1971c2" text-anchor="end" style="white-space: pre;" direction="ltr" dominant-baseline="text-before-edge">Node #N</text></g><g stroke-linecap="round" transform="translate(642.7015187626788 795.900459516616) rotate(0 144 35)"><path d="M4.66 4.05 C4.66 4.05, 4.66 4.05, 4.66 4.05 M4.66 4.05 C4.66 4.05, 4.66 4.05, 4.66 4.05 M2.17 19.11 C9.65 12.88, 13.88 6.5, 17.91 1 M2.17 19.11 C7.85 13.62, 13.72 6.17, 17.91 1 M2.3 31.15 C7.2 26.14, 12.3 18.68, 28.54 0.96 M2.3 31.15 C11.68 20.37, 19.06 12.27, 28.54 0.96 M2.43 43.19 C14.4 30.09, 26.86 13.98, 39.17 0.93 M2.43 43.19 C13.28 32.82, 21.62 21.11, 39.17 0.93 M3.22 54.48 C16.72 38.14, 26.64 26.97, 49.8 0.89 M3.22 54.48 C16.18 38.82, 28.43 23.73, 49.8 0.89 M5.32 64.25 C24.43 44.84, 40.44 24.12, 60.43 0.86 M5.32 64.25 C24.24 41.99, 42.79 20.56, 60.43 0.86 M10.71 70.26 C23.15 56.28, 39.07 39.08, 71.06 0.82 M10.71 70.26 C26.52 51.73, 44.57 32.98, 71.06 0.82 M18.06 74 C41.45 49.33, 60.32 24.61, 81.69 0.79 M18.06 74 C42.91 46.55, 68.27 18.44, 81.69 0.79 M28.69 73.96 C53.49 45.91, 79.24 14.81, 92.32 0.75 M28.69 73.96 C44.93 55.12, 62.94 35.33, 92.32 0.75 M39.32 73.93 C60.27 47.56, 84.41 24.3, 102.95 0.72 M39.32 73.93 C61.47 46.91, 85.44 20.84, 102.95 0.72 M49.95 73.89 C68.3 52.6, 88.88 30.29, 113.58 0.69 M49.95 73.89 C66.26 55.04, 82.19 36.96, 113.58 0.69 M60.58 73.86 C84.76 45.21, 111.33 16.58, 124.21 0.65 M60.58 73.86 C83.87 46.49, 108.98 19.41, 124.21 0.65 M71.21 73.82 C87.55 55.03, 105.89 34.27, 134.84 0.62 M71.21 73.82 C89.51 54.29, 106.68 35.17, 134.84 0.62 M81.84 73.79 C98.27 57.29, 112.72 37.74, 145.47 0.58 M81.84 73.79 C95.71 57.31, 108.05 42.64, 145.47 0.58 M92.47 73.75 C110.77 50.8, 132.91 29.04, 156.1 0.55 M92.47 73.75 C116.36 46.86, 139.35 20.4, 156.1 0.55 M103.1 73.72 C120.12 55.09, 135.4 36.12, 166.73 0.51 M103.1 73.72 C118.33 57.12, 132.12 39.1, 166.73 0.51 M113.73 73.69 C137.39 44.88, 163.92 16.59, 177.36 0.48 M113.73 73.69 C127.35 56.69, 143.31 41.33, 177.36 0.48 M124.36 73.65 C140.07 59.01, 152.23 42.19, 187.99 0.44 M124.36 73.65 C143.99 52.04, 164.55 29.26, 187.99 0.44 M134.33 74.37 C154.52 51.66, 179.19 27.42, 197.97 1.16 M134.33 74.37 C157.21 48.6, 179.58 21.84, 197.97 1.16 M144.96 74.34 C164.65 52.96, 183.28 32.33, 208.6 1.13 M144.96 74.34 C158.48 58.57, 172.7 40.25, 208.6 1.13 M155.59 74.3 C180.23 45.35, 202.82 18.93, 219.23 1.1 M155.59 74.3 C174.76 52.5, 194.42 29.07, 219.23 1.1 M166.22 74.27 C191.36 45.4, 211.92 21.89, 229.86 1.06 M166.22 74.27 C188.38 48.85, 209.28 25.18, 229.86 1.06 M176.85 74.23 C200.03 45.75, 224.29 19.81, 240.49 1.03 M176.85 74.23 C190.43 56.58, 206.66 39.43, 240.49 1.03 M187.48 74.2 C203.29 57.46, 216.12 42.56, 251.12 0.99 M187.48 74.2 C205.52 53.39, 222.53 31.69, 251.12 0.99 M198.11 74.16 C221.44 45.87, 247.21 17.72, 261.75 0.96 M198.11 74.16 C219.61 49.67, 240.89 24.95, 261.75 0.96 M208.74 74.13 C228.85 48.58, 255.14 21.51, 272.38 0.92 M208.74 74.13 C224.14 55.11, 239.67 36.19, 272.38 0.92 M219.37 74.1 C241.66 46.68, 267.05 23.87, 281.7 2.4 M219.37 74.1 C233.12 57.58, 249.42 39.86, 281.7 2.4 M230 74.06 C242.04 59.72, 257.47 42.32, 286.42 9.16 M230 74.06 C250.3 50.24, 269.67 27.58, 286.42 9.16 M240.63 74.03 C261.9 47.97, 280.61 25.25, 292.46 14.4 M240.63 74.03 C251.43 62.88, 262.08 49.41, 292.46 14.4 M251.26 73.99 C260.87 62.21, 270.43 55.02, 292.59 26.44 M251.26 73.99 C261.36 62.75, 270.8 52.21, 292.59 26.44 M261.89 73.96 C269.89 65.06, 277.28 56.74, 292.73 38.49 M261.89 73.96 C270.56 64.79, 280.46 53.24, 292.73 38.49 M273.83 72.41 C282.85 63, 289.53 56.35, 292.86 50.53 M273.83 72.41 C278.68 66.04, 282.71 60.44, 292.86 50.53" stroke="#ffc9c9" stroke-width="1" fill="none"></path><path d="M17.5 0 M17.5 0 C81.41 -0.01, 149.21 -2.14, 270.5 0 M17.5 0 C71.55 -1.09, 125.6 -1.26, 270.5 0 M270.5 0 C282.08 -1.28, 286.08 4.82, 288 17.5 M270.5 0 C281.05 -0.18, 290.14 6.08, 288 17.5 M288 17.5 C286.54 29.16, 290.01 37.05, 288 52.5 M288 17.5 C287.32 31.19, 286.9 45.36, 288 52.5 M288 52.5 C288.55 65.25, 283.92 69.44, 270.5 70 M288 52.5 C288.54 64.46, 282.99 68.65, 270.5 70 M270.5 70 C205.14 69.57, 139.09 71.46, 17.5 70 M270.5 70 C214.97 71.41, 159.9 70.53, 17.5 70 M17.5 70 C7.01 70.62, -1.78 65.04, 0 52.5 M17.5 70 C6.2 71.23, -1.68 65.06, 0 52.5 M0 52.5 C0.34 44.43, -0.51 36.4, 0 17.5 M0 52.5 C0.07 45.71, 0.37 37.57, 0 17.5 M0 17.5 C1.79 3.93, 7.1 1.1, 17.5 0 M0 17.5 C1.74 5.57, 4.43 2.11, 17.5 0" stroke="#e03131" stroke-width="2" fill="none"></path></g><g transform="translate(647.7015187626788 813.400459516616) rotate(0 79.52033996582031 17.5)"><text x="0" y="0" font-family="Virgil, Segoe UI Emoji" font-size="28px" fill="#e03131" text-anchor="start" style="white-space: pre;" direction="ltr" dominant-baseline="text-before-edge">NodePort A</text></g><g stroke-linecap="round" transform="translate(1051.3639384564894 704.9135314120408) rotate(0 131.66666666666674 125.98692810457521)"><path d="M11.99 116.43 C11.99 116.43, 11.99 116.43, 11.99 116.43 M11.99 116.43 C11.99 116.43, 11.99 116.43, 11.99 116.43 M13.44 126.96 C17.58 121.64, 21.31 118.3, 27.87 110.35 M13.44 126.96 C16.91 122.24, 19.91 119.3, 27.87 110.35 M15.54 136.73 C50.46 95.82, 88.32 51.13, 123.79 12.21 M15.54 136.73 C50.17 95.77, 86.38 55.03, 123.79 12.21 M20.26 143.49 C44.51 114.16, 71.77 87.37, 135.73 10.66 M20.26 143.49 C46.01 113.43, 72.59 84.59, 135.73 10.66 M25.65 149.49 C56.12 112.23, 90.29 77.27, 143.74 13.65 M25.65 149.49 C61.95 107.39, 98.14 65.15, 143.74 13.65 M31.03 155.5 C56.66 124.59, 85.15 90.75, 150.43 18.14 M31.03 155.5 C60.87 119.08, 92.43 84.03, 150.43 18.14 M37.06 160.75 C73.72 117.51, 110.37 74.34, 156.47 23.39 M37.06 160.75 C83.72 106.78, 131.88 52.6, 156.47 23.39 M42.45 166.75 C70.3 134.34, 100.48 101.18, 162.5 28.64 M42.45 166.75 C84.32 119.54, 126.3 71.79, 162.5 28.64 M48.48 172 C79.18 136.46, 111.34 99.88, 167.89 34.64 M48.48 172 C90.73 123.46, 132.33 75.15, 167.89 34.64 M54.52 177.25 C95.57 131.38, 135.97 85.3, 173.92 39.89 M54.52 177.25 C96.09 132.2, 136.87 84.86, 173.92 39.89 M59.9 183.25 C101.21 133.42, 143.86 84.54, 179.96 45.14 M59.9 183.25 C89.73 147.45, 121.16 112.14, 179.96 45.14 M65.94 188.5 C106.43 139.89, 143.33 97.16, 185.34 51.14 M65.94 188.5 C104.33 144.49, 141.23 102.25, 185.34 51.14 M71.98 193.75 C101.54 160.66, 127.98 124.92, 191.38 56.39 M71.98 193.75 C108.5 151.93, 145.64 109.49, 191.38 56.39 M77.36 199.75 C124.36 146.81, 170.35 91.25, 196.76 62.39 M77.36 199.75 C117.9 151.52, 157.81 105.7, 196.76 62.39 M83.4 205 C110.66 175.04, 138.97 144.33, 202.8 67.64 M83.4 205 C111.64 172.2, 140.71 140.81, 202.8 67.64 M88.78 211 C133.67 160.08, 177.29 106.21, 208.18 73.64 M88.78 211 C125.97 165.36, 165.35 121.09, 208.18 73.64 M94.82 216.25 C121.63 187.93, 147.29 158.76, 214.22 78.89 M94.82 216.25 C127.53 178.93, 159.78 141.14, 214.22 78.89 M100.85 221.5 C137.85 182.67, 172.94 140.11, 220.26 84.14 M100.85 221.5 C126.99 191.46, 151.48 161.72, 220.26 84.14 M106.24 227.5 C149.94 176.51, 191.31 128.39, 225.64 90.14 M106.24 227.5 C129.36 199.21, 153.12 170.42, 225.64 90.14 M112.27 232.75 C146.76 190.89, 181.74 148.76, 231.68 95.39 M112.27 232.75 C154.1 184.76, 195.9 137.38, 231.68 95.39 M118.31 238 C145.43 205.27, 173.35 173.43, 237.06 101.4 M118.31 238 C154 197.63, 187.8 155.65, 237.06 101.4 M125.01 242.49 C152.01 211.52, 183.1 178.17, 243.1 106.64 M125.01 242.49 C159.91 200.5, 197.45 158.55, 243.1 106.64 M132.36 246.23 C159.64 212.97, 186.25 184.63, 249.13 111.89 M132.36 246.23 C175.07 196.14, 219.36 146.07, 249.13 111.89 M155.45 231.86 C187.98 195.75, 215.18 161.67, 253.86 118.65 M155.45 231.86 C183.77 200.4, 212.59 168.76, 253.86 118.65 M219.88 169.94 C233.03 154.19, 246.06 137.69, 255.3 129.18 M219.88 169.94 C232.25 155.9, 245.64 141.84, 255.3 129.18" stroke="#b2f2bb" stroke-width="1" fill="none"></path><path d="M165 31.5 M165 31.5 C180.3 43.84, 193.07 57.18, 230.33 94.5 M230.33 94.5 C263.31 127.89, 262.59 126.63, 230.33 157.5 M230.33 157.5 C217.23 173.68, 200.75 186.1, 165 220.47 M165 220.47 C131.74 252.78, 132.15 252.21, 99 220.47 M99 220.47 C73.22 195.34, 47 169.74, 33 157.5 M33 157.5 C1.94 126.86, 0.57 127.48, 33 94.5 M33 94.5 C47.44 82.84, 61.37 66.26, 99 31.5 M99 31.5 C133.59 -0.38, 130.87 -0.35, 165 31.5" stroke="#2f9e44" stroke-width="2.5" fill="none" stroke-dasharray="8 10"></path></g><g transform="translate(1127.1162399905065 776.6273344473792) rotate(0 56.081031799316406 54.27966101694915)"><text x="56.081031799316406" y="0" font-family="Virgil, Segoe UI Emoji" font-size="28.949152542372875px" fill="#2f9e44" text-anchor="middle" style="white-space: pre;" direction="ltr" dominant-baseline="text-before-edge">Pod of </text><text x="56.081031799316406" y="36.1864406779661" font-family="Virgil, Segoe UI Emoji" font-size="28.949152542372875px" fill="#2f9e44" text-anchor="middle" style="white-space: pre;" direction="ltr" dominant-baseline="text-before-edge">Service </text><text x="56.081031799316406" y="72.3728813559322" font-family="Virgil, Segoe UI Emoji" font-size="28.949152542372875px" fill="#2f9e44" text-anchor="middle" style="white-space: pre;" direction="ltr" dominant-baseline="text-before-edge">A</text></g><g stroke-linecap="round"><g transform="translate(938.0306051231563 836.7089093438915) rotate(0 56.88968891874492 -1.4348884802283237)"><path d="M-1.18 0.87 C17.83 0.3, 95.75 -3.16, 114.96 -3.74" stroke="#2f9e44" stroke-width="4.5" fill="none" stroke-dasharray="8 12"></path></g></g><mask></mask><g stroke-linecap="round"><g transform="translate(936.3639384564898 485.80575575260747) rotate(0 57.98197749633289 2.3181052600926386)"><path d="M1.03 -0.44 C20.07 0.41, 96.04 4.12, 114.94 5.07" stroke="#2f9e44" stroke-width="4.5" fill="none" stroke-dasharray="8 12"></path></g></g><mask></mask></svg>